<svg xmlns="http://www.w3.org/2000/svg" viewBox="0 0 760 180" role="img" aria-labelledby="title desc">
  <title id="title">ParcelRouter logo</title>
  <desc id="desc">ParcelRouter wordmark with a package box icon.</desc>
  <rect x="16" y="26" width="128" height="128" rx="28" fill="#0f6b47"/>
  <path d="M41 69.5 80 55l39 14.5-39 14.7z" fill="#f7fbf8"/>
  <path d="m63 61.3 39 14.6L88.4 81l-39-14.5z" fill="#d9f2e5"/>
  <path d="M41 69.5 80 84.2v44.2L41 114.3z" fill="#f7fbf8"/>
  <path d="m80 84.2 39-14.7v44.8l-39 14.1z" fill="#e4f3ea"/>
  <path d="m88.4 81 13.6-5.1v26.6l-6.8-5.4-6.8 10z" fill="#b97818"/>
  <path d="M41 69.5 80 84.2l39-14.7M80 84.2v44.2" fill="none" stroke="#0f6b47" stroke-width="5" stroke-linejoin="round"/>
  <path d="M54 93.5h14v18.2H54z" fill="#d6e8dd" stroke="#0f6b47" stroke-width="5" stroke-linejoin="round"/>
  <path d="M76 97.5h17M76 108h22M76 118.5h15" fill="none" stroke="#0f6b47" stroke-width="6" stroke-linecap="round"/>
  <text x="176" y="109" fill="#14201b" font-family="Inter, ui-sans-serif, system-ui, -apple-system, BlinkMacSystemFont, 'Segoe UI', sans-serif" font-size="58" font-weight="800" letter-spacing="0">ParcelRouter</text>
</svg>
